<svg id="visual" viewBox="0 0 900 600" width="900" height="600" xmlns="http://www.w3.org/2000/svg" xmlns:xlink="http://www.w3.org/1999/xlink" version="1.1"><rect x="0" y="0" width="900" height="600" fill="#fafafa"></rect><path d="M559 600L547.8 583.3C536.7 566.7 514.3 533.3 513.3 500C512.3 466.7 532.7 433.3 536.8 400C541 366.7 529 333.3 515.3 300C501.7 266.7 486.3 233.3 478 200C469.7 166.7 468.3 133.3 480.3 100C492.3 66.7 517.7 33.3 530.3 16.7L543 0L900 0L900 16.7C900 33.3 900 66.7 900 100C900 133.3 900 166.7 900 200C900 233.3 900 266.7 900 300C900 333.3 900 366.7 900 400C900 433.3 900 466.7 900 500C900 533.3 900 566.7 900 583.3L900 600Z" fill="#00a0ff" stroke-linecap="round" stroke-linejoin="miter"></path></svg>